# xmcd
#
# Track frame offsets:
#	150
#	16576
#	33164
#	44640
#	60606
#	73646
#	88288
#	104284
#	120264
#	140726
#	159943
#	193928
#	210411
#	234000
#
# Disc length: 3534 seconds
#
# Revision: 1
# Processed by: cddbd v1.5.2PL0 Copyright (c) Steve Scherf et al.
# Submitted via: EasyCDDAExtractor 8.0.2.1
#
DISCID=b40dcc0e
DTITLE=Renaud - Molly Malone
DYEAR=2009
DGENRE=
TTITLE0=Vagabonds
TTITLE1=Belfast Mill
TTITLE2=Johnston's Motor Car
TTITLE3=Je reviendrai...
TTITLE4=Adieu a rhondda
TTITLE5=La fille de cavan
TTITLE6=Te marie pas, Mary !
TTITLE7=A Carlingford
TTITLE8=La ballade nord-irlandaise
TTITLE9=Dubliners
TTITLE10=Willie McBride
TTITLE11=Incendie
TTITLE12=Molly Malone
TTITLE13=Opendisc Data
EXTD=
EXTT0=
EXTT1=
EXTT2=
EXTT3=
EXTT4=
EXTT5=
EXTT6=
EXTT7=
EXTT8=
EXTT9=
EXTT10=
EXTT11=
EXTT12=
EXTT13=
PLAYORDER=
